<?xml version="1.0" encoding="UTF-8" standalone="no"?>
<svg xmlns="http://www.w3.org/2000/svg" version="1.1" viewBox="0.00 0.00 250.00 399.00">
  <g stroke-width="2.00" fill="none" stroke-linecap="butt">
    <path stroke="#5879c3" vector-effect="non-scaling-stroke" d="   M 66.83 119.09   Q 63.40 119.79 61.50 118.27   Q 31.30 94.11 5.10 73.06   A 0.35 0.35 0.0 0 0 4.53 73.33   Q 4.52 81.56 4.49 84.61   Q 4.45 91.34 5.42 95.80   Q 7.36 104.64 12.81 112.08   Q 15.65 115.97 25.53 123.92   Q 32.51 129.55 45.01 139.56   C 48.29 142.18 49.32 146.09 46.62 149.50   Q 44.29 152.43 40.56 152.02   Q 38.67 151.82 35.37 149.17   Q 30.08 144.92 5.09 124.87   A 0.35 0.35 0.0 0 0 4.52 125.14   Q 4.50 132.48 4.58 140.00   Q 4.72 153.96 12.81 164.83   Q 16.46 169.74 27.56 178.52   Q 36.70 185.75 54.41 200.08   A 0.34 0.34 0.0 0 0 54.96 199.87   Q 61.89 157.47 91.80 127.63   C 98.84 120.61 108.28 113.40 116.93 106.54   A 4.49 4.49 0.0 0 0 116.95 99.52   L 5.16 9.85   Q 4.77 9.53 4.75 10.04   Q 4.46 16.90 4.49 23.86   Q 4.56 36.85 4.66 38.15   Q 5.61 50.24 12.57 59.76   Q 16.01 64.46 26.37 72.77   Q 46.65 89.03 66.92 105.28   Q 70.23 107.94 71.16 109.59   C 73.20 113.24 70.99 118.25 66.83 119.09"></path>
    <path stroke="#5879c3" vector-effect="non-scaling-stroke" d="   M 180.09 117.29   Q 176.81 114.00 178.46 110.19   Q 179.23 108.40 182.83 105.50   Q 183.36 105.09 223.06 73.26   Q 234.41 64.17 237.52 59.79   Q 245.28 48.86 245.39 35.07   Q 245.47 25.35 245.42 10.09   A 0.35 0.35 0.0 0 0 244.85 9.82   L 133.14 99.43   A 4.59 4.59 0.0 0 0 133.20 106.64   Q 140.19 112.07 149.02 119.39   Q 186.87 150.77 195.05 199.87   A 0.35 0.34 65.5 0 0 195.61 200.08   Q 201.99 194.95 222.60 178.40   Q 233.70 169.48 237.18 164.83   Q 245.60 153.56 245.51 137.74   Q 245.47 131.31 245.43 124.99   A 0.27 0.26 -19.5 0 0 245.00 124.79   Q 229.16 137.53 212.69 150.70   Q 210.50 152.45 207.24 151.90   C 202.84 151.15 200.53 145.93 202.75 142.15   Q 203.70 140.53 207.19 137.75   Q 222.07 125.93 224.92 123.65   Q 234.39 116.07 237.65 111.42   Q 243.01 103.77 244.73 94.78   Q 245.51 90.66 245.46 84.15   Q 245.42 79.40 245.50 73.46   A 0.44 0.44 0.0 0 0 244.79 73.11   Q 222.98 90.71 189.47 117.46   Q 184.34 121.56 180.09 117.29"></path>
    <path stroke="#5879c3" vector-effect="non-scaling-stroke" d="   M 120.72 259.27   L 59.14 209.87   A 0.43 0.42 20.7 0 0 58.45 210.18   Q 58.24 214.61 58.22 219.18   Q 58.08 248.47 58.12 350.26   Q 58.12 351.80 58.61 350.35   Q 76.77 296.90 120.73 260.28   A 0.65 0.65 0.0 0 0 120.72 259.27"></path>
    <path stroke="#5879c3" vector-effect="non-scaling-stroke" d="   M 191.39 350.39   Q 191.44 350.56 191.52 350.65   A 0.21 0.20 26.6 0 0 191.89 350.53   Q 191.89 222.89 191.83 219.09   Q 191.76 214.43 191.58 210.21   A 0.46 0.46 0.0 0 0 190.84 209.87   L 129.13 259.38   A 0.51 0.51 0.0 0 0 129.12 260.17   Q 173.16 296.70 191.39 350.39"></path>
  </g>
  <path fill="#2056ae" d="   M 250.00 -0.05   L 250.00 37.72   Q 248.25 58.87 232.22 71.70   Q 209.49 89.90 183.47 110.79   A 2.09 1.68 -47.7 0 0 183.28 113.93   Q 183.33 113.96 183.36 114.00   Q 184.59 115.59 186.35 114.19   L 250.00 63.17   L 250.00 90.60   Q 247.84 111.05 233.23 122.72   Q 220.11 133.20 207.28 143.53   Q 205.58 144.90 206.96 146.58   Q 207.01 146.63 207.02 146.64   Q 208.39 148.33 210.09 146.97   L 250.00 115.00   L 250.00 142.62   Q 248.75 157.10 240.53 167.91   Q 236.97 172.60 225.92 181.49   Q 198.39 203.63 196.14 205.43   A 0.94 0.93 68.6 0 0 195.79 206.24   Q 196.40 214.67 196.40 219.75   Q 196.39 305.13 196.41 390.50   Q 196.41 393.01 196.13 395.84   Q 196.12 395.90 196.12 395.84   Q 196.12 395.82 196.13 395.79   Q 196.16 395.73 196.15 395.69   Q 193.05 359.59 176.93 327.29   Q 158.11 289.58 125.38 262.99   Q 125.00 262.68 124.62 262.99   Q 96.72 285.61 78.73 316.74   Q 57.52 353.44 53.82 395.91   Q 53.82 395.94 53.83 395.94   Q 53.84 395.94 53.85 395.94   Q 53.88 395.95 53.87 395.91   Q 53.60 393.19 53.60 391.00   Q 53.60 305.47 53.61 219.93   C 53.61 215.29 53.87 211.67 54.21 206.24   Q 54.24 205.74 53.85 205.42   Q 49.31 201.78 23.94 181.37   Q 12.95 172.53 9.36 167.77   Q 1.27 157.03 0.00 142.72   L 0.00 115.01   L 39.91 146.97   Q 41.37 148.14 43.13 146.80   Q 43.20 146.75 43.42 146.15   Q 44.00 144.57 42.69 143.51   Q 29.22 132.65 16.92 122.84   Q 2.21 111.11 0.00 90.69   L 0.00 63.19   L 63.91 114.39   A 2.10 2.10 0.0 0 0 67.04 113.80   L 67.39 113.21   A 1.60 1.59 34.4 0 0 67.00 111.17   Q 40.67 90.02 17.78 71.71   Q 1.87 58.97 0.00 37.97   L 0.00 -0.05   L 122.43 98.07   A 0.87 0.87 0.0 0 1 122.76 98.75   L 122.76 189.52   Q 122.76 190.03 122.38 190.38   C 121.85 190.88 121.13 191.26 120.90 191.61   Q 118.05 195.91 121.64 199.12   C 126.21 203.20 133.00 197.12 129.19 191.78   C 128.79 191.22 128.16 190.88 127.63 190.38   Q 127.25 190.02 127.25 189.50   L 127.25 98.77   A 0.93 0.91 -19.8 0 1 127.60 98.05   L 250.00 -0.05   Z   M 66.83 119.09   Q 63.40 119.79 61.50 118.27   Q 31.30 94.11 5.10 73.06   A 0.35 0.35 0.0 0 0 4.53 73.33   Q 4.52 81.56 4.49 84.61   Q 4.45 91.34 5.42 95.80   Q 7.36 104.64 12.81 112.08   Q 15.65 115.97 25.53 123.92   Q 32.51 129.55 45.01 139.56   C 48.29 142.18 49.32 146.09 46.62 149.50   Q 44.29 152.43 40.56 152.02   Q 38.67 151.82 35.37 149.17   Q 30.08 144.92 5.09 124.87   A 0.35 0.35 0.0 0 0 4.52 125.14   Q 4.50 132.48 4.58 140.00   Q 4.72 153.96 12.81 164.83   Q 16.46 169.74 27.56 178.52   Q 36.70 185.75 54.41 200.08   A 0.34 0.34 0.0 0 0 54.96 199.87   Q 61.89 157.47 91.80 127.63   C 98.84 120.61 108.28 113.40 116.93 106.54   A 4.49 4.49 0.0 0 0 116.95 99.52   L 5.16 9.85   Q 4.77 9.53 4.75 10.04   Q 4.46 16.90 4.49 23.86   Q 4.56 36.85 4.66 38.15   Q 5.61 50.24 12.57 59.76   Q 16.01 64.46 26.37 72.77   Q 46.65 89.03 66.92 105.28   Q 70.23 107.94 71.16 109.59   C 73.20 113.24 70.99 118.25 66.83 119.09   Z   M 180.09 117.29   Q 176.81 114.00 178.46 110.19   Q 179.23 108.40 182.83 105.50   Q 183.36 105.09 223.06 73.26   Q 234.41 64.17 237.52 59.79   Q 245.28 48.86 245.39 35.07   Q 245.47 25.35 245.42 10.09   A 0.35 0.35 0.0 0 0 244.85 9.82   L 133.14 99.43   A 4.59 4.59 0.0 0 0 133.20 106.64   Q 140.19 112.07 149.02 119.39   Q 186.87 150.77 195.05 199.87   A 0.35 0.34 65.5 0 0 195.61 200.08   Q 201.99 194.95 222.60 178.40   Q 233.70 169.48 237.18 164.83   Q 245.60 153.56 245.51 137.74   Q 245.47 131.31 245.43 124.99   A 0.27 0.26 -19.5 0 0 245.00 124.79   Q 229.16 137.53 212.69 150.70   Q 210.50 152.45 207.24 151.90   C 202.84 151.15 200.53 145.93 202.75 142.15   Q 203.70 140.53 207.19 137.75   Q 222.07 125.93 224.92 123.65   Q 234.39 116.07 237.65 111.42   Q 243.01 103.77 244.73 94.78   Q 245.51 90.66 245.46 84.15   Q 245.42 79.40 245.50 73.46   A 0.44 0.44 0.0 0 0 244.79 73.11   Q 222.98 90.71 189.47 117.46   Q 184.34 121.56 180.09 117.29   Z   M 120.72 259.27   L 59.14 209.87   A 0.43 0.42 20.7 0 0 58.45 210.18   Q 58.24 214.61 58.22 219.18   Q 58.08 248.47 58.12 350.26   Q 58.12 351.80 58.61 350.35   Q 76.77 296.90 120.73 260.28   A 0.65 0.65 0.0 0 0 120.72 259.27   Z   M 191.39 350.39   Q 191.44 350.56 191.52 350.65   A 0.21 0.20 26.6 0 0 191.89 350.53   Q 191.89 222.89 191.83 219.09   Q 191.76 214.43 191.58 210.21   A 0.46 0.46 0.0 0 0 190.84 209.87   L 129.13 259.38   A 0.51 0.51 0.0 0 0 129.12 260.17   Q 173.16 296.70 191.39 350.39   Z"></path>
  <path fill="#8f9cd7" d="   M 66.83 119.09   C 70.99 118.25 73.20 113.24 71.16 109.59   Q 70.23 107.94 66.92 105.28   Q 46.65 89.03 26.37 72.77   Q 16.01 64.46 12.57 59.76   Q 5.61 50.24 4.66 38.15   Q 4.56 36.85 4.49 23.86   Q 4.46 16.90 4.75 10.04   Q 4.77 9.53 5.16 9.85   L 116.95 99.52   A 4.49 4.49 0.0 0 1 116.93 106.54   C 108.28 113.40 98.84 120.61 91.80 127.63   Q 61.89 157.47 54.96 199.87   A 0.34 0.34 0.0 0 1 54.41 200.08   Q 36.70 185.75 27.56 178.52   Q 16.46 169.74 12.81 164.83   Q 4.72 153.96 4.58 140.00   Q 4.50 132.48 4.52 125.14   A 0.35 0.35 0.0 0 1 5.09 124.87   Q 30.08 144.92 35.37 149.17   Q 38.67 151.82 40.56 152.02   Q 44.29 152.43 46.62 149.50   C 49.32 146.09 48.29 142.18 45.01 139.56   Q 32.51 129.55 25.53 123.92   Q 15.65 115.97 12.81 112.08   Q 7.36 104.64 5.42 95.80   Q 4.45 91.34 4.49 84.61   Q 4.52 81.56 4.53 73.33   A 0.35 0.35 0.0 0 1 5.10 73.06   Q 31.30 94.11 61.50 118.27   Q 63.40 119.79 66.83 119.09   Z"></path>
  <path fill="#8f9cd7" d="   M 180.09 117.29   Q 184.34 121.56 189.47 117.46   Q 222.98 90.71 244.79 73.11   A 0.44 0.44 0.0 0 1 245.50 73.46   Q 245.42 79.40 245.46 84.15   Q 245.51 90.66 244.73 94.78   Q 243.01 103.77 237.65 111.42   Q 234.39 116.07 224.92 123.65   Q 222.07 125.93 207.19 137.75   Q 203.70 140.53 202.75 142.15   C 200.53 145.93 202.84 151.15 207.24 151.90   Q 210.50 152.45 212.69 150.70   Q 229.16 137.53 245.00 124.79   A 0.27 0.26 -19.5 0 1 245.43 124.99   Q 245.47 131.31 245.51 137.74   Q 245.60 153.56 237.18 164.83   Q 233.70 169.48 222.60 178.40   Q 201.99 194.95 195.61 200.08   A 0.35 0.34 65.5 0 1 195.05 199.87   Q 186.87 150.77 149.02 119.39   Q 140.19 112.07 133.20 106.64   A 4.59 4.59 0.0 0 1 133.14 99.43   L 244.85 9.82   A 0.35 0.35 0.0 0 1 245.42 10.09   Q 245.47 25.35 245.39 35.07   Q 245.28 48.86 237.52 59.79   Q 234.41 64.17 223.06 73.26   Q 183.36 105.09 182.83 105.50   Q 179.23 108.40 178.46 110.19   Q 176.81 114.00 180.09 117.29   Z"></path>
  <path fill="#8f9cd7" d="   M 59.14 209.87   L 120.72 259.27   A 0.65 0.65 0.0 0 1 120.73 260.28   Q 76.77 296.90 58.61 350.35   Q 58.12 351.80 58.12 350.26   Q 58.08 248.47 58.22 219.18   Q 58.24 214.61 58.45 210.18   A 0.43 0.42 20.7 0 1 59.14 209.87   Z"></path>
  <path fill="#8f9cd7" d="   M 191.39 350.39   Q 173.16 296.70 129.12 260.17   A 0.51 0.51 0.0 0 1 129.13 259.38   L 190.84 209.87   A 0.46 0.46 0.0 0 1 191.58 210.21   Q 191.76 214.43 191.83 219.09   Q 191.89 222.89 191.89 350.53   A 0.21 0.20 26.6 0 1 191.52 350.65   Q 191.44 350.56 191.39 350.39   Z"></path>
  <path fill="#2056ae" d="   M 133.68 356.28   Q 133.40 356.36 131.52 357.13   Q 130.95 357.36 131.20 356.79   Q 132.66 353.46 135.87 351.81   A 1.50 1.46 -52.8 0 1 136.81 351.67   Q 144.57 352.98 149.83 347.32   A 0.40 0.39 -42.4 0 1 150.43 347.34   Q 150.62 347.59 150.54 347.77   C 148.16 352.91 142.05 356.94 136.42 356.15   Q 134.82 355.92 133.68 356.28   Z"></path>
  <path fill="#2056ae" d="   M 76.42 353.03   Q 76.23 352.83 76.12 352.20   Q 76.02 351.58 76.41 351.09   L 79.08 347.76   A 0.54 0.52 14.6 0 1 79.42 347.57   Q 81.12 347.36 83.01 348.89   A 1.59 1.58 32.2 0 1 83.45 350.81   C 82.50 352.84 81.39 353.71 79.18 354.49   C 76.85 355.31 71.10 357.84 69.86 360.12   Q 68.99 361.73 70.69 362.40   Q 75.02 364.10 80.13 364.40   Q 90.68 365.01 100.89 364.38   Q 117.78 363.34 139.77 361.66   Q 142.16 361.48 142.88 361.95   Q 145.25 363.50 142.44 363.93   Q 131.84 365.55 110.68 368.39   Q 93.94 370.63 79.64 370.15   Q 73.56 369.95 68.88 368.13   Q 64.25 366.32 66.90 361.90   Q 70.05 356.67 76.14 354.00   Q 77.00 353.62 76.42 353.03   Z"></path>
  <path fill="#2056ae" d="   M 157.24 353.75   L 155.09 352.51   Q 154.44 352.14 154.82 351.49   L 156.53 348.52   Q 156.81 348.04 157.35 348.19   Q 158.33 348.46 159.00 349.30   C 160.07 350.64 159.03 352.40 158.04 353.61   Q 157.70 354.02 157.24 353.75   Z"></path>
  <path fill="#2056ae" d="   M 119.48 357.64   L 117.14 356.29   Q 116.53 355.94 116.88 355.33   L 118.87 351.88   Q 119.15 351.41 119.68 351.56   C 121.41 352.04 122.99 353.81 121.76 355.71   Q 121.01 356.87 120.59 357.42   Q 120.13 358.02 119.48 357.64   Z"></path>
  <path fill="#2056ae" d="   M 178.02 355.51   L 176.98 357.53   A 1.36 1.36 0.0 0 1 175.03 358.05   L 173.53 357.06   A 1.36 1.36 0.0 0 1 173.07 355.28   L 174.43 352.77   A 1.36 1.36 0.0 0 1 176.68 352.56   L 177.87 354.03   A 1.36 1.36 0.0 0 1 178.02 355.51   Z"></path>
  <path fill="#2056ae" d="   M 157.89 355.38   L 159.37 353.54   A 1.03 1.02 38.5 0 1 160.82 353.38   L 162.23 354.51   Q 162.72 354.90 162.59 355.52   Q 162.14 357.65 160.32 359.07   Q 159.97 359.34 159.62 359.06   L 158.08 357.83   A 0.68 0.68 0.0 0 0 157.12 357.93   L 155.48 359.98   Q 155.08 360.48 154.59 360.08   L 152.50 358.40   Q 151.77 357.82 152.36 357.09   L 154.59 354.31   A 0.84 0.83 -51.0 0 1 155.77 354.18   L 157.34 355.44   Q 157.65 355.68 157.89 355.38   Z"></path>
  <rect fill="#2056ae" x="-0.43" y="-4.56" transform="translate(162.13,365.35) rotate(37.0)" width="0.86" height="9.12" rx="0.42"></rect>
  <path fill="#2056ae" d="   M 147.63 382.68   Q 147.43 384.06 148.40 383.06   Q 159.17 371.94 166.65 362.40   Q 168.21 360.42 167.17 362.72   Q 165.72 365.93 163.27 369.03   Q 157.45 376.40 150.91 383.06   A 0.29 0.28 -61.4 0 0 151.05 383.54   Q 155.02 384.43 158.99 385.49   Q 161.40 386.13 163.10 383.99   Q 163.43 383.58 163.94 383.70   Q 164.22 383.77 164.41 383.80   Q 164.54 383.83 165.04 383.57   Q 166.51 382.84 169.50 381.46   A 2.28 2.27 79.3 0 0 170.81 379.53   Q 171.04 375.33 173.08 371.97   Q 173.96 370.51 173.81 372.21   C 173.40 377.04 172.75 382.81 167.97 384.90   Q 163.56 386.84 159.10 388.09   Q 158.62 388.22 158.16 388.04   L 156.99 387.57   Q 156.51 387.38 156.24 388.14   C 155.62 389.90 154.49 393.89 152.44 396.10   C 150.41 398.31 146.96 398.23 145.93 395.14   Q 145.04 392.49 145.45 388.75   Q 146.39 380.03 146.94 377.41   Q 147.48 374.78 148.74 372.66   Q 149.18 371.91 149.06 372.77   L 147.63 382.68   Z   M 151.87 391.67   A 2.08 2.08 0.0 0 0 153.17 391.02   L 154.35 389.76   A 2.08 2.08 0.0 0 0 153.07 386.27   L 149.95 385.92   A 2.08 2.08 0.0 0 0 147.65 388.29   L 147.92 390.09   A 2.08 2.08 0.0 0 0 150.20 391.84   L 151.87 391.67   Z"></path>
  <path fill="#2056ae" d="   M 116.70 381.24   C 116.94 377.78 117.43 373.94 119.41 371.06   Q 120.17 369.94 119.97 371.28   Q 119.02 377.52 118.75 381.52   C 118.51 384.98 118.02 388.82 116.04 391.70   Q 115.28 392.82 115.48 391.48   Q 116.43 385.24 116.70 381.24   Z"></path>
  <path fill="#2056ae" d="   M 130.47 381.50   Q 130.70 379.28 131.09 377.08   Q 131.66 373.89 132.73 371.95   Q 134.15 369.40 133.62 372.19   Q 133.42 373.20 132.56 381.56   Q 132.33 383.78 131.94 385.98   Q 131.37 389.17 130.30 391.11   Q 128.88 393.66 129.41 390.87   Q 129.61 389.86 130.47 381.50   Z"></path>
  <path fill="#2056ae" d="   M 176.17 392.48   Q 176.89 387.34 177.93 376.75   Q 178.07 375.28 180.14 371.82   Q 180.47 371.26 180.44 371.91   Q 180.28 375.54 178.87 386.83   Q 178.47 390.04 176.46 392.61   Q 176.09 393.09 176.17 392.48   Z"></path>
  <path fill="#2056ae" d="   M 102.30 383.50   C 101.98 387.65 101.51 390.80 99.49 393.85   Q 98.92 394.71 99.07 393.69   Q 99.92 387.96 100.27 383.36   C 100.60 379.21 101.07 376.06 103.09 373.01   Q 103.66 372.15 103.51 373.17   Q 102.66 378.90 102.30 383.50   Z"></path>
  <path fill="#2056ae" d="   M 74.04 399.00   L 72.60 399.00   Q 71.07 397.92 70.35 396.23   Q 70.15 395.77 70.38 395.32   C 72.03 392.11 72.59 388.66 72.94 384.74   C 73.27 381.02 73.90 378.88 75.54 376.09   Q 76.59 374.30 76.29 376.35   Q 74.74 387.04 74.16 389.77   Q 73.67 392.12 72.54 393.65   Q 70.93 395.83 73.57 395.25   C 76.78 394.55 78.03 391.80 78.37 388.65   Q 78.81 384.48 79.21 381.49   Q 79.75 377.43 81.41 374.98   Q 82.80 372.94 82.21 375.34   Q 81.11 379.88 81.10 384.43   Q 81.10 386.58 82.99 387.25   C 86.24 388.40 87.31 386.61 89.26 385.23   Q 89.70 384.92 90.22 385.03   Q 92.02 385.40 93.18 383.39   Q 93.46 382.92 94.01 382.92   L 94.39 382.92   A 0.83 0.83 0.0 0 0 95.11 382.50   L 96.57 380.02   A 0.31 0.18 77.5 0 1 96.91 380.38   Q 96.52 383.09 95.19 384.46   Q 94.53 385.14 90.94 388.08   Q 90.56 388.39 90.08 388.39   L 88.76 388.39   A 1.10 1.08 -69.8 0 0 87.92 388.79   C 85.58 391.64 82.67 395.60 79.25 391.87   Q 78.92 391.52 78.78 391.98   Q 77.42 396.39 74.04 399.00   Z"></path>
  <path fill="#2056ae" d="   M 109.36 390.42   Q 108.42 388.69 106.34 387.15   A 0.41 0.40 -60.4 0 1 106.21 386.65   L 108.20 382.33   Q 108.31 382.08 108.56 382.20   Q 112.25 383.99 111.89 387.72   Q 111.23 394.53 105.16 396.32   A 2.03 1.95 -52.5 0 1 104.57 396.41   Q 103.93 396.42 103.90 396.14   Q 103.89 395.98 104.03 395.89   Q 106.86 394.07 109.28 391.19   A 0.69 0.69 0.0 0 0 109.36 390.42   Z"></path>
  <path fill="#2056ae" d="   M 186.13 390.22   Q 185.03 388.52 183.39 387.31   Q 182.71 386.81 183.13 386.08   L 185.14 382.60   A 0.45 0.44 -60.5 0 1 185.74 382.43   Q 188.96 384.21 188.74 387.48   Q 188.25 394.78 181.38 396.50   Q 180.99 396.59 180.83 396.23   Q 180.75 396.07 180.78 395.97   Q 180.80 395.88 180.95 395.79   Q 184.25 393.77 186.13 390.93   Q 186.36 390.58 186.13 390.22   Z"></path>
  <path fill="#2056ae" d="   M 125.67 382.89   Q 125.72 382.68 125.94 382.68   L 126.25 382.68   Q 126.46 382.68 126.43 382.89   C 125.81 386.48 123.50 394.20 119.91 395.72   Q 118.33 396.38 116.84 396.42   Q 114.14 396.49 116.49 395.17   Q 123.62 391.16 125.67 382.89   Z"></path>
  <path fill="#2056ae" d="   M 135.55 388.27   Q 136.03 386.15 137.49 384.61   Q 137.87 384.22 138.41 384.23   Q 141.63 384.29 142.02 387.09   Q 142.69 391.93 138.76 396.62   Q 138.33 397.13 137.39 397.39   Q 137.04 397.49 136.75 397.53   A 2.18 2.17 -3.3 0 1 134.24 395.30   Q 134.32 393.23 134.84 391.38   Q 134.91 391.12 135.55 388.27   Z   M 135.91 390.48   L 135.53 392.67   A 0.79 0.79 0.0 0 0 136.17 393.58   L 136.60 393.66   A 2.79 1.78 9.9 0 0 139.66 392.38   L 139.70 392.15   A 2.79 1.78 9.9 0 0 137.26 389.91   L 136.82 389.84   A 0.79 0.79 0.0 0 0 135.91 390.48   Z"></path>
</svg>
